<svg width="12" height="12" viewBox="0 0 12 12" fill="none" xmlns="http://www.w3.org/2000/svg">
<g clip-path="url(#clip0_48_473)">
<path fill-rule="evenodd" clip-rule="evenodd" d="M6 0.149902C2.7 0.149902 0 2.8499 0 6.1499C0 8.7749 1.725 11.0249 4.125 11.8499C4.425 11.9249 4.5 11.6999 4.5 11.5499C4.5 11.3999 4.5 11.0249 4.5 10.4999C2.85 10.8749 2.475 9.7499 2.475 9.7499C2.175 9.0749 1.8 8.8499 1.8 8.8499C1.275 8.4749 1.875 8.4749 1.875 8.4749C2.475 8.5499 2.775 9.0749 2.775 9.0749C3.3 10.0499 4.2 9.7499 4.5 9.5999C4.575 9.2249 4.725 8.9249 4.875 8.7749C3.525 8.6249 2.175 8.0999 2.175 5.7749C2.175 5.0999 2.4 4.5749 2.775 4.1999C2.7 4.0499 2.475 3.4499 2.85 2.6249C2.85 2.6249 3.375 2.4749 4.5 3.2249C4.95 3.0749 5.475 2.9999 6 2.9999C6.525 2.9999 7.05 3.0749 7.5 3.2249C8.625 2.4749 9.15 2.6249 9.15 2.6249C9.45 3.4499 9.3 4.0499 9.225 4.1999C9.6 4.6499 9.825 5.1749 9.825 5.7749C9.825 8.0999 8.4 8.5499 7.05 8.6999C7.275 8.9999 7.5 9.3749 7.5 9.8999C7.5 10.7249 7.5 11.3249 7.5 11.5499C7.5 11.6999 7.575 11.9249 7.95 11.8499C10.35 11.0249 12.075 8.7749 12.075 6.1499C12 2.8499 9.3 0.149902 6 0.149902Z" fill="black"/>
</g>
<defs>
<clipPath id="clip0_48_473">
<rect width="12" height="12" fill="white"/>
</clipPath>
</defs>
</svg>
