<svg width="16" height="16" viewBox="0 0 16 16" fill="none" xmlns="http://www.w3.org/2000/svg">
<g clip-path="url(#clip0_47_454)">
<path d="M8.00008 16C12.4184 16 16.0002 12.4183 16.0002 7.99992C16.0002 3.58157 12.4183 0 8.00008 0C3.58189 0 0 3.58173 0 8.00008C0 12.4184 3.58173 16.0002 8.00008 16.0002V16Z" fill="black"/>
<path d="M8.24902 12.3415V13.9976L12 8.80811L9.42322 10.3029C8.69642 10.7245 8.24902 11.5012 8.24902 12.3415Z" fill="#9A9A9A"/>
<path d="M8.24908 13.9976V12.2644C8.24908 11.4715 7.82696 10.7387 7.14116 10.3407L4.5 8.80811L8.24908 13.9976Z" fill="white"/>
<path d="M11.9976 8.11009L8.24902 10.2865V2.13403L11.9482 8.088L11.9976 8.11009Z" fill="#9A9A9A"/>
<path d="M8.24892 10.2864L4.5 8.11L8.24892 6.43579V10.2864Z" fill="white"/>
<path d="M8.24892 6.43504L4.5 8.11004L8.24892 2V6.43504Z" fill="white"/>
<path d="M11.9976 8.11017C11.9976 8.11017 8.24902 8.64991 8.24902 6.43517C8.24902 4.22043 8.24902 10.2866 8.24902 10.2866L11.9976 8.11017Z" fill="#333333"/>
<path d="M4.5 8.1101C4.5 8.1101 8.24924 8.66016 8.24924 6.44543C8.24924 4.23069 8.24924 10.2969 8.24924 10.2969L4.5 8.1101Z" fill="#9A9A9A"/>
<path d="M7.55727 7.71612C7.09148 7.97162 6.45269 8.10551 5.44346 8.16113L4.4978 8.10551L8.24038 2.05014L8.24863 2.57462L8.24863 5.96779C8.24863 6.02296 8.24578 6.07765 8.24038 6.13184C8.24863 7.00092 8.02307 7.46061 7.55727 7.71612Z" fill="white"/>
</g>
<defs>
<clipPath id="clip0_47_454">
<rect width="16" height="16" fill="white"/>
</clipPath>
</defs>
</svg>
