<svg width="12" height="12" viewBox="0 0 12 12" fill="none" xmlns="http://www.w3.org/2000/svg">
<g clip-path="url(#clip0_48_481)">
<path d="M10.5 0.75H1.5C1.10218 0.75 0.720644 0.908035 0.43934 1.18934C0.158035 1.47064 0 1.85218 0 2.25L0 2.55L6 5.925L12 2.625V2.25C12 1.85218 11.842 1.47064 11.5607 1.18934C11.2794 0.908035 10.8978 0.75 10.5 0.75Z" fill="black"/>
<path d="M5.625 7.4249L0 4.2749V9.7499C0 10.1477 0.158035 10.5293 0.43934 10.8106C0.720644 11.0919 1.10218 11.2499 1.5 11.2499H10.5C10.8978 11.2499 11.2794 11.0919 11.5607 10.8106C11.842 10.5293 12 10.1477 12 9.7499V4.2749L6.375 7.4249C6.2568 7.47683 6.1291 7.50365 6 7.50365C5.8709 7.50365 5.7432 7.47683 5.625 7.4249Z" fill="black"/>
</g>
<defs>
<clipPath id="clip0_48_481">
<rect width="12" height="12" fill="white"/>
</clipPath>
</defs>
</svg>
