<svg width="12" height="12" viewBox="0 0 12 12" fill="none" xmlns="http://www.w3.org/2000/svg">
<g clip-path="url(#clip0_48_477)">
<path d="M11.9759 1.26292C11.9665 1.21864 11.9454 1.17768 11.9148 1.14431C11.8842 1.11094 11.8452 1.08638 11.8019 1.07317C11.6443 1.04173 11.481 1.05339 11.3294 1.10692C11.3294 1.10692 0.815195 4.88542 0.214445 5.30392C0.0854448 5.39467 0.0419448 5.44642 0.0201948 5.50792C-0.0833052 5.80792 0.239945 5.93767 0.239945 5.93767L2.94969 6.82042C2.99545 6.82867 3.04251 6.82584 3.08694 6.81217C3.70344 6.42292 9.28944 2.89567 9.61194 2.77717C9.66294 2.76217 9.70044 2.77717 9.68694 2.81392C9.55794 3.26392 4.73244 7.55317 4.70619 7.57942C4.69339 7.59012 4.68336 7.60375 4.67696 7.61916C4.67056 7.63457 4.66798 7.6513 4.66944 7.66792L4.41669 10.3139C4.41669 10.3139 4.31019 11.1389 5.13369 10.3139C5.71794 9.72967 6.27894 9.24517 6.55869 9.01042C7.49019 9.65392 8.49294 10.3649 8.92569 10.7354C8.99816 10.806 9.08416 10.8612 9.1785 10.8977C9.27285 10.9341 9.3736 10.9511 9.47469 10.9477C9.59917 10.9323 9.71604 10.8794 9.8098 10.7961C9.90355 10.7128 9.96978 10.603 9.99969 10.4812C9.99969 10.4812 11.9204 2.77492 11.9842 1.73767C11.9902 1.63642 11.9999 1.57492 11.9999 1.49992C12.0027 1.4202 11.9946 1.34047 11.9759 1.26292Z" fill="black"/>
</g>
<defs>
<clipPath id="clip0_48_477">
<rect width="12" height="12" fill="white"/>
</clipPath>
</defs>
</svg>
