<svg xmlns="http://www.w3.org/2000/svg" width="32" height="32" viewBox="0 0 32 32" fill="none">
  <path d="M6.483 12.362a8.269 8.269 0 0 0-4.793-1.536h-2.717v20.908h10.95V18.907a7.95 7.95 0 0 0-.025-.62c-.193-2.436-1.507-4.57-3.415-5.925Z" fill="#000"/>
  <path d="M21.669 18.786h7.814V9.82A9.02 9.02 0 0 0 20.463.8H0a9.19 9.19 0 0 0 2.701 6.52 9.237 9.237 0 0 0 4.042 2.364 9.807 9.807 0 0 1 1.646.946c2.32 1.647 3.784 4.17 4.027 6.936V24.4c.01.101.022.201.036.301.505 3.623 3.598 6.51 7.338 6.51H32L21.669 18.787v-.001Z" fill="#000"/>
</svg>
